<?xml version="1.0" standalone="no"?>
<!DOCTYPE svg PUBLIC "-//W3C//DTD SVG 20010904//EN"
 "http://www.w3.org/TR/2001/REC-SVG-20010904/DTD/svg10.dtd">
<svg version="1.0" xmlns="http://www.w3.org/2000/svg"
 width="840.000000pt" height="691.000000pt" viewBox="0 0 840.000000 691.000000"
 preserveAspectRatio="xMidYMid meet">

<g transform="translate(0.000000,691.000000) scale(0.100000,-0.100000)"
fill="#000000" stroke="none">
<path d="M6510 6492 c-36 -9 -59 -27 -69 -51 -6 -14 -31 -113 -56 -219 -47
-203 -61 -236 -118 -270 -17 -11 -115 -38 -217 -61 -221 -50 -237 -56 -255
-92 -22 -42 -18 -75 13 -108 24 -27 47 -34 231 -76 112 -25 212 -50 221 -55
10 -5 31 -25 47 -43 25 -29 38 -66 82 -243 29 -115 58 -216 64 -225 29 -39 95
-51 133 -24 30 20 38 46 79 245 43 210 47 220 95 264 30 27 55 38 131 55 321
73 323 73 351 102 31 31 36 65 13 108 -18 36 -33 41 -255 92 -102 23 -197 48
-212 55 -57 29 -75 69 -126 288 -37 154 -55 213 -71 230 -23 24 -55 36 -81 28z
m45 -386 c49 -211 105 -268 310 -319 69 -17 122 -34 118 -38 -5 -3 -53 -16
-108 -29 -124 -28 -181 -56 -233 -115 -44 -51 -63 -97 -88 -220 -9 -44 -19
-86 -23 -93 -4 -7 -20 38 -36 100 -15 62 -36 130 -47 150 -47 95 -120 144
-268 177 -52 12 -104 25 -115 28 -12 4 29 18 113 39 208 51 270 110 312 303
25 112 30 131 35 131 2 0 15 -51 30 -114z"/>
<path d="M3995 5934 c-746 -80 -1390 -534 -1709 -1204 -359 -757 -235 -1654
317 -2295 173 -201 425 -398 650 -506 55 -27 60 -39 15 -39 -18 0 -125 -12
-238 -26 -150 -18 -210 -30 -224 -42 -11 -9 -96 -172 -190 -362 -155 -315
-170 -350 -174 -408 -9 -124 43 -200 197 -287 323 -182 758 -305 1230 -346
178 -15 654 -7 820 15 415 55 780 168 1072 332 153 86 206 162 197 286 -4 57
-20 95 -177 414 -118 239 -180 355 -195 363 -21 10 -399 61 -456 61 -43 0 -37
13 18 39 169 81 397 247 548 397 819 819 830 2140 25 2968 -326 335 -722 542
-1185 622 -88 15 -453 27 -541 18z m343 -134 c247 -19 434 -66 607 -152 453
-228 770 -645 877 -1155 20 -94 23 -137 22 -323 0 -183 -3 -230 -22 -317 -112
-516 -429 -929 -890 -1158 -528 -262 -1157 -222 -1644 104 -372 249 -613 608
-710 1054 -19 87 -22 134 -22 317 -1 186 2 229 22 323 107 511 425 928 882
1157 188 94 414 145 715 159 17 0 90 -4 163 -9z m-1068 -4260 c253 -74 474
-112 757 -132 424 -29 944 55 1370 221 l124 49 156 -312 c141 -284 155 -316
149 -349 -12 -63 -47 -91 -219 -176 -197 -97 -314 -141 -511 -191 -307 -78
-533 -104 -896 -104 -363 0 -589 26 -896 104 -197 50 -314 94 -511 191 -172
85 -207 113 -219 176 -6 33 8 65 149 349 l156 312 124 -49 c69 -26 189 -67
267 -89z"/>
<path d="M2073 5202 c-96 -77 -178 -183 -248 -322 -87 -173 -155 -393 -134
-433 16 -29 28 -37 60 -37 38 0 54 24 84 130 65 231 149 385 282 517 99 99
114 131 75 166 -30 27 -66 20 -119 -21z"/>
<path d="M1502 4915 c-82 -104 -73 -741 12 -797 20 -14 63 -8 79 10 21 23 21
55 3 152 -32 166 -30 301 6 537 11 76 11 84 -7 103 -25 28 -69 26 -93 -5z"/>
<path d="M6413 2825 c-14 -10 -26 -34 -33 -73 -41 -194 -152 -367 -317 -489
-65 -48 -73 -57 -73 -87 0 -39 26 -66 62 -66 13 0 47 15 74 32 62 42 191 169
233 231 72 106 137 264 156 380 5 31 2 41 -19 62 -29 29 -52 31 -83 10z"/>
<path d="M1557 2810 c-19 -15 -36 -53 -67 -148 -23 -70 -50 -134 -60 -142 -9
-9 -68 -33 -131 -54 -129 -43 -159 -66 -159 -123 0 -57 28 -77 169 -124 69
-23 131 -46 137 -53 7 -6 30 -68 53 -137 47 -141 67 -169 123 -169 57 0 74 23
125 174 l48 140 130 43 c169 56 202 91 160 172 -14 29 -18 30 -264 114 -27 10
-37 21 -47 52 -71 211 -87 246 -115 260 -39 20 -72 19 -102 -5z m93 -302 c28
-76 66 -111 152 -138 38 -12 66 -26 61 -30 -4 -4 -45 -20 -90 -34 -91 -30 -82
-19 -132 -166 -12 -34 -21 -49 -25 -40 -3 8 -15 42 -27 75 -28 75 -59 106
-134 134 -108 39 -107 36 -31 61 93 31 129 65 157 148 33 102 28 103 69 -10z"/>
<path d="M6367 2175 c-109 -118 -222 -187 -373 -225 -87 -23 -106 -36 -106
-74 0 -41 28 -66 76 -66 61 0 223 60 313 115 88 55 227 190 237 231 9 36 -21
78 -58 82 -23 3 -38 -8 -89 -63z"/>
</g>
</svg>
